<svg width="55" height="32" viewBox="0 0 55 32" fill="none" xmlns="http://www.w3.org/2000/svg">
<path d="M48.2638 8.97987C47.2111 8.97987 46.2136 9.30843 45.3897 9.88629C44.5657 10.4624 43.9155 11.2863 43.5546 12.277L38.0439 26.284C38.0386 26.2977 38.0336 26.3116 38.0285 26.3253L38.0267 26.327L37.2749 28.2396C37.158 28.5607 37.1034 28.8851 37.1034 29.2015C37.1034 30.6855 38.3045 31.9976 39.9066 31.9976C42.0136 31.9976 43.8953 30.6801 44.6159 28.7005L49.9752 15.0773C49.9752 15.0773 49.9752 15.077 49.9752 15.0767L50.8952 12.7376C51.0119 12.4165 51.0665 12.0921 51.0662 11.7757C51.0656 10.2917 49.8656 8.97958 48.2635 8.97958L48.2638 8.97987Z" fill="white"/>
<path d="M40.77 9.10542C41.1597 8.03369 41.3526 7.02903 41.3529 6.10718C41.3541 2.37823 38.2051 0 32.1858 0H14.5819C13.8218 0 13.0855 0.27513 12.5112 0.774045C11.7561 1.43115 11.4189 2.28771 11.4189 3.13031C11.4189 4.74696 12.6625 6.31405 14.5819 6.31405H30.5792C32.4384 6.31405 33.4243 6.98778 33.424 8.13311C33.424 8.35482 33.3869 8.59404 33.3121 8.84928C33.2917 8.9214 33.2673 8.99382 33.24 9.06772C32.6313 10.736 30.8802 11.8627 28.5583 11.8627H19.4992H8.93862C7.73452 11.8627 7.5508 12.3271 7.0415 13.5826L1.43264 27.762C1.17116 28.4794 0.443711 30.2905 0.0376931 31.2984C0.0118719 31.3625 0 31.4278 0 31.4913C0.000593593 31.7602 0.217552 32 0.510787 32C1.61517 31.9982 3.61528 31.9982 4.39971 31.9982H5.15298C6.47907 31.9982 7.66417 31.1675 8.11827 29.9203L11.5118 21.6403L12.1259 20.1421C12.5782 18.8952 13.7651 18.0645 15.0912 18.0645H25.5779C33.1216 18.0645 38.8165 14.4733 40.7703 9.10512L40.77 9.10542Z" fill="white"/>
<path d="M52.4986 0.376635C52.0581 0.137714 51.5509 0 51.0007 0H50.2094C48.8833 0 47.6982 0.830733 47.2441 2.07787C47.1117 2.43996 47.05 2.80621 47.0503 3.16326C47.0503 3.74379 47.2141 4.30117 47.5038 4.78169C47.8187 5.30286 48.2796 5.73292 48.8403 6.00301C49.2496 6.20067 49.7123 6.31434 50.2094 6.31434H51.0007C52.3285 6.31434 53.5136 5.48361 53.9677 4.23677C54.0983 3.87557 54.1603 3.51081 54.1603 3.15495C54.1603 1.99061 53.505 0.920663 52.4989 0.377228L52.4986 0.376635Z" fill="white"/>
</svg>
